<svg xmlns="http://www.w3.org/2000/svg" viewBox="0 0 24 24" fill="none">
  <g fill="#F2F3F5">
    <g transform="translate(12 8.5)">
      <path d="M-4,-1.46C-4,-3.669 -2.209,-5.46 0,-5.46C2.209,-5.46 4,-3.669 4,-1.46V2.5C4,4.709 2.209,6.5 0,6.5C-2.209,6.5 -4,4.709 -4,2.5V-1.46Z"/>
    </g>
    <g transform="translate(12 20)">
      <path d="M-1,-2C-1,-2.276 -0.776,-2.5 -0.5,-2.5H0.5C0.776,-2.5 1,-2.276 1,-2V2C1,2.276 0.776,2.5 0.5,2.5H-0.5C-0.776,2.5 -1,2.276 -1,2V-2Z"/>
    </g>
    <g transform="translate(12 22)">
      <path d="M3,-1C3.552,-1 4,-0.552 4,0C4,0.552 3.552,1 3,1H-3C-3.552,1 -4,0.552 -4,0C-4,-0.552 -3.552,-1 -3,-1H3Z"/>
    </g>
  </g>
  <g transform="translate(12 14)">
    <path d="M-7,-3C-7,0.866 -3.866,4 0,4C3.866,4 7,0.866 7,-3" stroke="#F2F3F5" stroke-width="2" stroke-linecap="round" stroke-linejoin="miter" fill="none"/>
  </g>
</svg>
