<svg xmlns="http://www.w3.org/2000/svg" viewBox="0 0 24 24" fill="none">
  <g transform="translate(12 12.288)" fill="#ED4245">
    <path d="M-8,-0.288C-8,-4.706 -4.418,-8.288 0,-8.288C4.418,-8.288 8,-4.706 8,-0.288C8,0.405 7.954,1.072 7.854,1.712H6C5.056,1.712 4.167,2.157 3.6,2.912L1.627,5.542C1.158,6.168 1.036,6.988 1.304,7.723C1.889,9.332 3.887,10.288 5.482,9.132C8.839,6.701 10,3.38 10,-0.288C10,-5.811 5.523,-10.288 0,-10.288C-5.523,-10.288 -10,-5.811 -10,-0.288C-10,3.38 -8.839,6.701 -5.482,9.132C-3.887,10.288 -1.889,9.332 -1.304,7.723C-1.036,6.988 -1.158,6.168 -1.627,5.542L-3.6,2.912C-4.167,2.157 -5.056,1.712 -6,1.712H-7.854C-7.954,1.072 -8,0.405 -8,-0.288Z"/>
  </g>
  <g transform="translate(12 12)">
    <path d="M-10,10C-10,10 10,-10 10,-10" stroke="#ED4245" stroke-width="2" stroke-linecap="round" stroke-linejoin="miter" fill="none"/>
  </g>
</svg>
